<svg xmlns="http://www.w3.org/2000/svg" viewBox="0 0 24 30" x="0px" y="0px"><path d="m16,22.75h-8c-2.0679,0-3.75-1.6826-3.75-3.75V5c0-2.0674,1.6821-3.75,3.75-3.75h8c2.0679,0,3.75,1.6826,3.75,3.75v14c0,2.0674-1.6821,3.75-3.75,3.75ZM8,2.75c-1.2407,0-2.25,1.0098-2.25,2.25v14c0,1.2402,1.0093,2.25,2.25,2.25h8c1.2407,0,2.25-1.0098,2.25-2.25V5c0-1.2402-1.0093-2.25-2.25-2.25h-8Zm7.25,8.251c0-3.1709-2.5796-5.75-5.75-5.75-.4141,0-.75.3359-.75.75s.3359.75.75.75c2.3433,0,4.25,1.9062,4.25,4.25,0,.4141.3359.75.75.75s.75-.3359.75-.75Zm-3,0c0-1.5166-1.2334-2.75-2.75-2.75-.4141,0-.75.3359-.75.75s.3359.75.75.75c.6895,0,1.25.5605,1.25,1.25,0,.4141.3359.75.75.75s.75-.3359.75-.75Zm2.5,7.999c0-.4141-.3359-.75-.75-.75h-4c-.4141,0-.75.3359-.75.75s.3359.75.75.75h4c.4141,0,.75-.3359.75-.75Z"/><text x="0" y="39" fill="#000000" font-size="5px" font-weight="bold" font-family="'Helvetica Neue', Helvetica, Arial-Unicode, Arial, Sans-serif">Created by Arkinasi</text><text x="0" y="44" fill="#000000" font-size="5px" font-weight="bold" font-family="'Helvetica Neue', Helvetica, Arial-Unicode, Arial, Sans-serif">from the Noun Project</text></svg>